# xmcd CD database file
#
# Track frame offsets:
#	150
#	20789
#	42527
#	57998
#
# Disc length: 1057 seconds
#
# Revision: 0
# Processed by: cddbd v1.5PL3 Copyright (c) Steve Scherf et al.
# Submitted via: CDex 1.50
#
DISCID=35041f04
DTITLE=kaoru - before you cry
DYEAR=2003
DGENRE=JPop
TTITLE0=理想
TTITLE1=カイテントビラ
TTITLE2=Teddy Bear
TTITLE3=明け方の空
EXTD=YEAR: 2003
EXTT0=
EXTT1=
EXTT2=
EXTT3=
PLAYORDER=
